<mxfile host="app.diagrams.net" modified="2021-11-17T16:03:34.462Z" agent="5.0 (Windows NT 10.0; Win64; x64) AppleWebKit/537.36 (KHTML, like Gecko) Chrome/93.0.4577.82 Safari/537.36" etag="QZOhTSKkMY0omZ5BilDD" version="15.8.0" type="github">
  <diagram id="C5RBs43oDa-KdzZeNtuy" name="Page-1">
    <mxGraphModel dx="1422" dy="772" grid="1" gridSize="10" guides="1" tooltips="1" connect="1" arrows="1" fold="1" page="1" pageScale="1" pageWidth="827" pageHeight="1169" math="0" shadow="0">
      <root>
        <mxCell id="WIyWlLk6GJQsqaUBKTNV-0" />
        <mxCell id="WIyWlLk6GJQsqaUBKTNV-1" parent="WIyWlLk6GJQsqaUBKTNV-0" />
        <mxCell id="r9kAt0_Pim-WVQuWLaHv-6" style="edgeStyle=orthogonalEdgeStyle;rounded=0;orthogonalLoop=1;jettySize=auto;html=1;entryX=0.5;entryY=0;entryDx=0;entryDy=0;" edge="1" parent="WIyWlLk6GJQsqaUBKTNV-1" source="r9kAt0_Pim-WVQuWLaHv-1" target="r9kAt0_Pim-WVQuWLaHv-4">
          <mxGeometry relative="1" as="geometry" />
        </mxCell>
        <mxCell id="r9kAt0_Pim-WVQuWLaHv-7" style="edgeStyle=orthogonalEdgeStyle;rounded=0;orthogonalLoop=1;jettySize=auto;html=1;entryX=0.5;entryY=0;entryDx=0;entryDy=0;" edge="1" parent="WIyWlLk6GJQsqaUBKTNV-1" source="r9kAt0_Pim-WVQuWLaHv-1" target="r9kAt0_Pim-WVQuWLaHv-5">
          <mxGeometry relative="1" as="geometry" />
        </mxCell>
        <mxCell id="r9kAt0_Pim-WVQuWLaHv-1" value="" style="shape=actor;whiteSpace=wrap;html=1;" vertex="1" parent="WIyWlLk6GJQsqaUBKTNV-1">
          <mxGeometry x="400" width="40" height="50" as="geometry" />
        </mxCell>
        <mxCell id="r9kAt0_Pim-WVQuWLaHv-16" value="" style="edgeStyle=orthogonalEdgeStyle;rounded=0;orthogonalLoop=1;jettySize=auto;html=1;" edge="1" parent="WIyWlLk6GJQsqaUBKTNV-1" source="r9kAt0_Pim-WVQuWLaHv-4" target="r9kAt0_Pim-WVQuWLaHv-10">
          <mxGeometry relative="1" as="geometry" />
        </mxCell>
        <mxCell id="r9kAt0_Pim-WVQuWLaHv-23" style="edgeStyle=orthogonalEdgeStyle;rounded=0;orthogonalLoop=1;jettySize=auto;html=1;" edge="1" parent="WIyWlLk6GJQsqaUBKTNV-1" source="r9kAt0_Pim-WVQuWLaHv-4" target="r9kAt0_Pim-WVQuWLaHv-9">
          <mxGeometry relative="1" as="geometry" />
        </mxCell>
        <mxCell id="r9kAt0_Pim-WVQuWLaHv-24" style="edgeStyle=orthogonalEdgeStyle;rounded=0;orthogonalLoop=1;jettySize=auto;html=1;" edge="1" parent="WIyWlLk6GJQsqaUBKTNV-1" source="r9kAt0_Pim-WVQuWLaHv-4" target="r9kAt0_Pim-WVQuWLaHv-11">
          <mxGeometry relative="1" as="geometry" />
        </mxCell>
        <mxCell id="r9kAt0_Pim-WVQuWLaHv-25" style="edgeStyle=orthogonalEdgeStyle;rounded=0;orthogonalLoop=1;jettySize=auto;html=1;" edge="1" parent="WIyWlLk6GJQsqaUBKTNV-1" source="r9kAt0_Pim-WVQuWLaHv-4" target="r9kAt0_Pim-WVQuWLaHv-5">
          <mxGeometry relative="1" as="geometry" />
        </mxCell>
        <mxCell id="r9kAt0_Pim-WVQuWLaHv-4" value="WeChat Official Account Menu" style="rounded=1;whiteSpace=wrap;html=1;fontSize=12;glass=0;strokeWidth=1;shadow=0;" vertex="1" parent="WIyWlLk6GJQsqaUBKTNV-1">
          <mxGeometry x="180" y="100" width="120" height="40" as="geometry" />
        </mxCell>
        <mxCell id="r9kAt0_Pim-WVQuWLaHv-64" style="edgeStyle=orthogonalEdgeStyle;rounded=0;orthogonalLoop=1;jettySize=auto;html=1;exitX=0.5;exitY=1;exitDx=0;exitDy=0;entryX=1;entryY=0.5;entryDx=0;entryDy=0;fillColor=#e51400;strokeColor=#B20000;dashed=1;" edge="1" parent="WIyWlLk6GJQsqaUBKTNV-1" source="r9kAt0_Pim-WVQuWLaHv-5" target="r9kAt0_Pim-WVQuWLaHv-39">
          <mxGeometry relative="1" as="geometry">
            <Array as="points">
              <mxPoint x="600" y="150" />
              <mxPoint x="380" y="150" />
              <mxPoint x="380" y="260" />
            </Array>
          </mxGeometry>
        </mxCell>
        <mxCell id="r9kAt0_Pim-WVQuWLaHv-67" style="edgeStyle=orthogonalEdgeStyle;rounded=0;orthogonalLoop=1;jettySize=auto;html=1;exitX=0.5;exitY=1;exitDx=0;exitDy=0;entryX=1;entryY=0.5;entryDx=0;entryDy=0;dashed=1;fillColor=#e51400;strokeColor=#B20000;" edge="1" parent="WIyWlLk6GJQsqaUBKTNV-1" source="r9kAt0_Pim-WVQuWLaHv-5" target="r9kAt0_Pim-WVQuWLaHv-51">
          <mxGeometry relative="1" as="geometry" />
        </mxCell>
        <mxCell id="r9kAt0_Pim-WVQuWLaHv-5" value="WeChat Official Account Article" style="rounded=1;whiteSpace=wrap;html=1;fontSize=12;glass=0;strokeWidth=1;shadow=0;" vertex="1" parent="WIyWlLk6GJQsqaUBKTNV-1">
          <mxGeometry x="540" y="100" width="120" height="40" as="geometry" />
        </mxCell>
        <mxCell id="r9kAt0_Pim-WVQuWLaHv-34" style="edgeStyle=orthogonalEdgeStyle;rounded=0;orthogonalLoop=1;jettySize=auto;html=1;exitX=0;exitY=0.5;exitDx=0;exitDy=0;entryX=0;entryY=0.5;entryDx=0;entryDy=0;" edge="1" parent="WIyWlLk6GJQsqaUBKTNV-1" source="r9kAt0_Pim-WVQuWLaHv-9" target="r9kAt0_Pim-WVQuWLaHv-31">
          <mxGeometry relative="1" as="geometry" />
        </mxCell>
        <mxCell id="r9kAt0_Pim-WVQuWLaHv-35" style="edgeStyle=orthogonalEdgeStyle;rounded=0;orthogonalLoop=1;jettySize=auto;html=1;exitX=0;exitY=0.5;exitDx=0;exitDy=0;entryX=0;entryY=0.5;entryDx=0;entryDy=0;" edge="1" parent="WIyWlLk6GJQsqaUBKTNV-1" source="r9kAt0_Pim-WVQuWLaHv-9" target="r9kAt0_Pim-WVQuWLaHv-26">
          <mxGeometry relative="1" as="geometry" />
        </mxCell>
        <mxCell id="r9kAt0_Pim-WVQuWLaHv-38" style="edgeStyle=orthogonalEdgeStyle;rounded=0;orthogonalLoop=1;jettySize=auto;html=1;exitX=0;exitY=0.5;exitDx=0;exitDy=0;entryX=0;entryY=0.5;entryDx=0;entryDy=0;" edge="1" parent="WIyWlLk6GJQsqaUBKTNV-1" source="r9kAt0_Pim-WVQuWLaHv-9" target="r9kAt0_Pim-WVQuWLaHv-36">
          <mxGeometry relative="1" as="geometry" />
        </mxCell>
        <mxCell id="r9kAt0_Pim-WVQuWLaHv-9" value="Personal center" style="rounded=1;whiteSpace=wrap;html=1;fontSize=12;glass=0;strokeWidth=1;shadow=0;" vertex="1" parent="WIyWlLk6GJQsqaUBKTNV-1">
          <mxGeometry x="40" y="170" width="120" height="40" as="geometry" />
        </mxCell>
        <mxCell id="r9kAt0_Pim-WVQuWLaHv-53" style="edgeStyle=orthogonalEdgeStyle;rounded=0;orthogonalLoop=1;jettySize=auto;html=1;exitX=0.5;exitY=1;exitDx=0;exitDy=0;" edge="1" parent="WIyWlLk6GJQsqaUBKTNV-1" source="r9kAt0_Pim-WVQuWLaHv-10" target="r9kAt0_Pim-WVQuWLaHv-39">
          <mxGeometry relative="1" as="geometry" />
        </mxCell>
        <mxCell id="r9kAt0_Pim-WVQuWLaHv-10" value="Activities" style="rounded=1;whiteSpace=wrap;html=1;fontSize=12;glass=0;strokeWidth=1;shadow=0;" vertex="1" parent="WIyWlLk6GJQsqaUBKTNV-1">
          <mxGeometry x="220" y="170" width="120" height="40" as="geometry" />
        </mxCell>
        <mxCell id="r9kAt0_Pim-WVQuWLaHv-57" style="edgeStyle=orthogonalEdgeStyle;rounded=0;orthogonalLoop=1;jettySize=auto;html=1;exitX=0.5;exitY=1;exitDx=0;exitDy=0;" edge="1" parent="WIyWlLk6GJQsqaUBKTNV-1" source="r9kAt0_Pim-WVQuWLaHv-11" target="r9kAt0_Pim-WVQuWLaHv-51">
          <mxGeometry relative="1" as="geometry" />
        </mxCell>
        <mxCell id="r9kAt0_Pim-WVQuWLaHv-11" value="News Center" style="rounded=1;whiteSpace=wrap;html=1;fontSize=12;glass=0;strokeWidth=1;shadow=0;" vertex="1" parent="WIyWlLk6GJQsqaUBKTNV-1">
          <mxGeometry x="400" y="170" width="120" height="40" as="geometry" />
        </mxCell>
        <mxCell id="r9kAt0_Pim-WVQuWLaHv-13" style="edgeStyle=orthogonalEdgeStyle;rounded=0;orthogonalLoop=1;jettySize=auto;html=1;exitX=0.5;exitY=1;exitDx=0;exitDy=0;" edge="1" parent="WIyWlLk6GJQsqaUBKTNV-1" source="r9kAt0_Pim-WVQuWLaHv-11" target="r9kAt0_Pim-WVQuWLaHv-11">
          <mxGeometry relative="1" as="geometry" />
        </mxCell>
        <mxCell id="r9kAt0_Pim-WVQuWLaHv-26" value="Personal Info" style="rounded=1;whiteSpace=wrap;html=1;fontSize=12;glass=0;strokeWidth=1;shadow=0;" vertex="1" parent="WIyWlLk6GJQsqaUBKTNV-1">
          <mxGeometry x="60" y="240" width="120" height="40" as="geometry" />
        </mxCell>
        <mxCell id="r9kAt0_Pim-WVQuWLaHv-31" value="Acitivities Management" style="rounded=1;whiteSpace=wrap;html=1;fontSize=12;glass=0;strokeWidth=1;shadow=0;" vertex="1" parent="WIyWlLk6GJQsqaUBKTNV-1">
          <mxGeometry x="60" y="310" width="120" height="40" as="geometry" />
        </mxCell>
        <mxCell id="r9kAt0_Pim-WVQuWLaHv-36" value="Articles Management" style="rounded=1;whiteSpace=wrap;html=1;fontSize=12;glass=0;strokeWidth=1;shadow=0;" vertex="1" parent="WIyWlLk6GJQsqaUBKTNV-1">
          <mxGeometry x="60" y="380" width="120" height="40" as="geometry" />
        </mxCell>
        <mxCell id="r9kAt0_Pim-WVQuWLaHv-48" style="edgeStyle=orthogonalEdgeStyle;rounded=0;orthogonalLoop=1;jettySize=auto;html=1;exitX=0;exitY=0.5;exitDx=0;exitDy=0;entryX=0;entryY=0.5;entryDx=0;entryDy=0;" edge="1" parent="WIyWlLk6GJQsqaUBKTNV-1" source="r9kAt0_Pim-WVQuWLaHv-39" target="r9kAt0_Pim-WVQuWLaHv-43">
          <mxGeometry relative="1" as="geometry" />
        </mxCell>
        <mxCell id="r9kAt0_Pim-WVQuWLaHv-49" style="edgeStyle=orthogonalEdgeStyle;rounded=0;orthogonalLoop=1;jettySize=auto;html=1;exitX=0;exitY=0.5;exitDx=0;exitDy=0;entryX=0;entryY=0.5;entryDx=0;entryDy=0;" edge="1" parent="WIyWlLk6GJQsqaUBKTNV-1" source="r9kAt0_Pim-WVQuWLaHv-39" target="r9kAt0_Pim-WVQuWLaHv-44">
          <mxGeometry relative="1" as="geometry" />
        </mxCell>
        <mxCell id="r9kAt0_Pim-WVQuWLaHv-50" style="edgeStyle=orthogonalEdgeStyle;rounded=0;orthogonalLoop=1;jettySize=auto;html=1;exitX=0;exitY=0.5;exitDx=0;exitDy=0;entryX=0;entryY=0.5;entryDx=0;entryDy=0;" edge="1" parent="WIyWlLk6GJQsqaUBKTNV-1" source="r9kAt0_Pim-WVQuWLaHv-39" target="r9kAt0_Pim-WVQuWLaHv-46">
          <mxGeometry relative="1" as="geometry" />
        </mxCell>
        <mxCell id="r9kAt0_Pim-WVQuWLaHv-39" value="Activities Detail" style="rounded=1;whiteSpace=wrap;html=1;fontSize=12;glass=0;strokeWidth=1;shadow=0;" vertex="1" parent="WIyWlLk6GJQsqaUBKTNV-1">
          <mxGeometry x="240" y="240" width="120" height="40" as="geometry" />
        </mxCell>
        <mxCell id="r9kAt0_Pim-WVQuWLaHv-43" value="Acitivities Assets Download" style="rounded=1;whiteSpace=wrap;html=1;fontSize=12;glass=0;strokeWidth=1;shadow=0;" vertex="1" parent="WIyWlLk6GJQsqaUBKTNV-1">
          <mxGeometry x="260" y="310" width="120" height="40" as="geometry" />
        </mxCell>
        <mxCell id="r9kAt0_Pim-WVQuWLaHv-44" value="Acitivitie Registration" style="rounded=1;whiteSpace=wrap;html=1;fontSize=12;glass=0;strokeWidth=1;shadow=0;" vertex="1" parent="WIyWlLk6GJQsqaUBKTNV-1">
          <mxGeometry x="260" y="380" width="120" height="40" as="geometry" />
        </mxCell>
        <mxCell id="r9kAt0_Pim-WVQuWLaHv-46" value="Confirm Acitivitie Registration" style="rounded=1;whiteSpace=wrap;html=1;fontSize=12;glass=0;strokeWidth=1;shadow=0;" vertex="1" parent="WIyWlLk6GJQsqaUBKTNV-1">
          <mxGeometry x="260" y="450" width="120" height="40" as="geometry" />
        </mxCell>
        <mxCell id="r9kAt0_Pim-WVQuWLaHv-58" style="edgeStyle=orthogonalEdgeStyle;rounded=0;orthogonalLoop=1;jettySize=auto;html=1;exitX=0;exitY=0.5;exitDx=0;exitDy=0;entryX=0;entryY=0.5;entryDx=0;entryDy=0;" edge="1" parent="WIyWlLk6GJQsqaUBKTNV-1" source="r9kAt0_Pim-WVQuWLaHv-51" target="r9kAt0_Pim-WVQuWLaHv-54">
          <mxGeometry relative="1" as="geometry" />
        </mxCell>
        <mxCell id="r9kAt0_Pim-WVQuWLaHv-59" style="edgeStyle=orthogonalEdgeStyle;rounded=0;orthogonalLoop=1;jettySize=auto;html=1;exitX=0;exitY=0.5;exitDx=0;exitDy=0;entryX=0;entryY=0.5;entryDx=0;entryDy=0;" edge="1" parent="WIyWlLk6GJQsqaUBKTNV-1" source="r9kAt0_Pim-WVQuWLaHv-51" target="r9kAt0_Pim-WVQuWLaHv-55">
          <mxGeometry relative="1" as="geometry" />
        </mxCell>
        <mxCell id="r9kAt0_Pim-WVQuWLaHv-60" style="edgeStyle=orthogonalEdgeStyle;rounded=0;orthogonalLoop=1;jettySize=auto;html=1;exitX=0;exitY=0.5;exitDx=0;exitDy=0;entryX=0;entryY=0.5;entryDx=0;entryDy=0;" edge="1" parent="WIyWlLk6GJQsqaUBKTNV-1" source="r9kAt0_Pim-WVQuWLaHv-51" target="r9kAt0_Pim-WVQuWLaHv-56">
          <mxGeometry relative="1" as="geometry" />
        </mxCell>
        <mxCell id="r9kAt0_Pim-WVQuWLaHv-51" value="News Detail" style="rounded=1;whiteSpace=wrap;html=1;fontSize=12;glass=0;strokeWidth=1;shadow=0;" vertex="1" parent="WIyWlLk6GJQsqaUBKTNV-1">
          <mxGeometry x="420" y="240" width="120" height="40" as="geometry" />
        </mxCell>
        <mxCell id="r9kAt0_Pim-WVQuWLaHv-54" value="User Poster" style="rounded=1;whiteSpace=wrap;html=1;fontSize=12;glass=0;strokeWidth=1;shadow=0;" vertex="1" parent="WIyWlLk6GJQsqaUBKTNV-1">
          <mxGeometry x="440" y="310" width="120" height="40" as="geometry" />
        </mxCell>
        <mxCell id="r9kAt0_Pim-WVQuWLaHv-55" value="News Assets Download" style="rounded=1;whiteSpace=wrap;html=1;fontSize=12;glass=0;strokeWidth=1;shadow=0;" vertex="1" parent="WIyWlLk6GJQsqaUBKTNV-1">
          <mxGeometry x="440" y="380" width="120" height="40" as="geometry" />
        </mxCell>
        <mxCell id="r9kAt0_Pim-WVQuWLaHv-56" value="Send to E-mail" style="rounded=1;whiteSpace=wrap;html=1;fontSize=12;glass=0;strokeWidth=1;shadow=0;" vertex="1" parent="WIyWlLk6GJQsqaUBKTNV-1">
          <mxGeometry x="440" y="450" width="120" height="40" as="geometry" />
        </mxCell>
      </root>
    </mxGraphModel>
  </diagram>
</mxfile>
